<mxfile host="app.diagrams.net" agent="Mozilla/5.0 (X11; Linux x86_64) AppleWebKit/537.36 (KHTML, like Gecko) Chrome/106.0.0.0 Safari/537.36" version="24.8.3">
  <diagram name="Page-1" id="5a-T7TWGsY7hWpcLpUOf">
    <mxGraphModel dx="1434" dy="801" grid="1" gridSize="10" guides="1" tooltips="1" connect="1" arrows="1" fold="1" page="0" pageScale="1" pageWidth="850" pageHeight="1100" math="0" shadow="0">
      <root>
        <mxCell id="0" />
        <mxCell id="1" parent="0" />
        <mxCell id="Hle__ljJlGau1w-L2hVQ-1" value="PaymentTransaction" style="swimlane;fontStyle=1;align=center;verticalAlign=top;childLayout=stackLayout;horizontal=1;startSize=24.2;horizontalStack=0;resizeParent=1;resizeParentMax=0;resizeLast=0;collapsible=0;marginBottom=0;" vertex="1" parent="1">
          <mxGeometry x="101" y="20" width="172" height="248.2" as="geometry" />
        </mxCell>
        <mxCell id="Hle__ljJlGau1w-L2hVQ-2" value="+id" style="text;strokeColor=none;fillColor=none;align=left;verticalAlign=top;spacingLeft=4;spacingRight=4;overflow=hidden;rotatable=0;points=[[0,0.5],[1,0.5]];portConstraint=eastwest;" vertex="1" parent="Hle__ljJlGau1w-L2hVQ-1">
          <mxGeometry y="24.2" width="172" height="24" as="geometry" />
        </mxCell>
        <mxCell id="Hle__ljJlGau1w-L2hVQ-3" value="+reference" style="text;strokeColor=none;fillColor=none;align=left;verticalAlign=top;spacingLeft=4;spacingRight=4;overflow=hidden;rotatable=0;points=[[0,0.5],[1,0.5]];portConstraint=eastwest;" vertex="1" parent="Hle__ljJlGau1w-L2hVQ-1">
          <mxGeometry y="48.2" width="172" height="24" as="geometry" />
        </mxCell>
        <mxCell id="Hle__ljJlGau1w-L2hVQ-4" value="+amount" style="text;strokeColor=none;fillColor=none;align=left;verticalAlign=top;spacingLeft=4;spacingRight=4;overflow=hidden;rotatable=0;points=[[0,0.5],[1,0.5]];portConstraint=eastwest;" vertex="1" parent="Hle__ljJlGau1w-L2hVQ-1">
          <mxGeometry y="72.2" width="172" height="24" as="geometry" />
        </mxCell>
        <mxCell id="Hle__ljJlGau1w-L2hVQ-5" value="+currency_id" style="text;strokeColor=none;fillColor=none;align=left;verticalAlign=top;spacingLeft=4;spacingRight=4;overflow=hidden;rotatable=0;points=[[0,0.5],[1,0.5]];portConstraint=eastwest;" vertex="1" parent="Hle__ljJlGau1w-L2hVQ-1">
          <mxGeometry y="96.2" width="172" height="24" as="geometry" />
        </mxCell>
        <mxCell id="Hle__ljJlGau1w-L2hVQ-6" value="+partner_id" style="text;strokeColor=none;fillColor=none;align=left;verticalAlign=top;spacingLeft=4;spacingRight=4;overflow=hidden;rotatable=0;points=[[0,0.5],[1,0.5]];portConstraint=eastwest;" vertex="1" parent="Hle__ljJlGau1w-L2hVQ-1">
          <mxGeometry y="120.2" width="172" height="24" as="geometry" />
        </mxCell>
        <mxCell id="Hle__ljJlGau1w-L2hVQ-7" value="+acquirer_id" style="text;strokeColor=none;fillColor=none;align=left;verticalAlign=top;spacingLeft=4;spacingRight=4;overflow=hidden;rotatable=0;points=[[0,0.5],[1,0.5]];portConstraint=eastwest;" vertex="1" parent="Hle__ljJlGau1w-L2hVQ-1">
          <mxGeometry y="144.2" width="172" height="24" as="geometry" />
        </mxCell>
        <mxCell id="Hle__ljJlGau1w-L2hVQ-8" value="+state" style="text;strokeColor=none;fillColor=none;align=left;verticalAlign=top;spacingLeft=4;spacingRight=4;overflow=hidden;rotatable=0;points=[[0,0.5],[1,0.5]];portConstraint=eastwest;" vertex="1" parent="Hle__ljJlGau1w-L2hVQ-1">
          <mxGeometry y="168.2" width="172" height="24" as="geometry" />
        </mxCell>
        <mxCell id="Hle__ljJlGau1w-L2hVQ-9" style="line;strokeWidth=1;fillColor=none;align=left;verticalAlign=middle;spacingTop=-1;spacingLeft=3;spacingRight=3;rotatable=0;labelPosition=right;points=[];portConstraint=eastwest;strokeColor=inherit;" vertex="1" parent="Hle__ljJlGau1w-L2hVQ-1">
          <mxGeometry y="192.2" width="172" height="8" as="geometry" />
        </mxCell>
        <mxCell id="Hle__ljJlGau1w-L2hVQ-10" value="+process_payment()" style="text;strokeColor=none;fillColor=none;align=left;verticalAlign=top;spacingLeft=4;spacingRight=4;overflow=hidden;rotatable=0;points=[[0,0.5],[1,0.5]];portConstraint=eastwest;" vertex="1" parent="Hle__ljJlGau1w-L2hVQ-1">
          <mxGeometry y="200.2" width="172" height="24" as="geometry" />
        </mxCell>
        <mxCell id="Hle__ljJlGau1w-L2hVQ-11" value="+confirm_payment()" style="text;strokeColor=none;fillColor=none;align=left;verticalAlign=top;spacingLeft=4;spacingRight=4;overflow=hidden;rotatable=0;points=[[0,0.5],[1,0.5]];portConstraint=eastwest;" vertex="1" parent="Hle__ljJlGau1w-L2hVQ-1">
          <mxGeometry y="224.2" width="172" height="24" as="geometry" />
        </mxCell>
        <mxCell id="Hle__ljJlGau1w-L2hVQ-12" value="PaymentAcquirer" style="swimlane;fontStyle=1;align=center;verticalAlign=top;childLayout=stackLayout;horizontal=1;startSize=25;horizontalStack=0;resizeParent=1;resizeParentMax=0;resizeLast=0;collapsible=0;marginBottom=0;" vertex="1" parent="1">
          <mxGeometry x="20" y="337" width="156" height="183" as="geometry" />
        </mxCell>
        <mxCell id="Hle__ljJlGau1w-L2hVQ-13" value="+id" style="text;strokeColor=none;fillColor=none;align=left;verticalAlign=top;spacingLeft=4;spacingRight=4;overflow=hidden;rotatable=0;points=[[0,0.5],[1,0.5]];portConstraint=eastwest;" vertex="1" parent="Hle__ljJlGau1w-L2hVQ-12">
          <mxGeometry y="25" width="156" height="25" as="geometry" />
        </mxCell>
        <mxCell id="Hle__ljJlGau1w-L2hVQ-14" value="+name" style="text;strokeColor=none;fillColor=none;align=left;verticalAlign=top;spacingLeft=4;spacingRight=4;overflow=hidden;rotatable=0;points=[[0,0.5],[1,0.5]];portConstraint=eastwest;" vertex="1" parent="Hle__ljJlGau1w-L2hVQ-12">
          <mxGeometry y="50" width="156" height="25" as="geometry" />
        </mxCell>
        <mxCell id="Hle__ljJlGau1w-L2hVQ-15" value="+provider" style="text;strokeColor=none;fillColor=none;align=left;verticalAlign=top;spacingLeft=4;spacingRight=4;overflow=hidden;rotatable=0;points=[[0,0.5],[1,0.5]];portConstraint=eastwest;" vertex="1" parent="Hle__ljJlGau1w-L2hVQ-12">
          <mxGeometry y="75" width="156" height="25" as="geometry" />
        </mxCell>
        <mxCell id="Hle__ljJlGau1w-L2hVQ-16" value="+state" style="text;strokeColor=none;fillColor=none;align=left;verticalAlign=top;spacingLeft=4;spacingRight=4;overflow=hidden;rotatable=0;points=[[0,0.5],[1,0.5]];portConstraint=eastwest;" vertex="1" parent="Hle__ljJlGau1w-L2hVQ-12">
          <mxGeometry y="100" width="156" height="25" as="geometry" />
        </mxCell>
        <mxCell id="Hle__ljJlGau1w-L2hVQ-17" value="+configuration_data" style="text;strokeColor=none;fillColor=none;align=left;verticalAlign=top;spacingLeft=4;spacingRight=4;overflow=hidden;rotatable=0;points=[[0,0.5],[1,0.5]];portConstraint=eastwest;" vertex="1" parent="Hle__ljJlGau1w-L2hVQ-12">
          <mxGeometry y="125" width="156" height="25" as="geometry" />
        </mxCell>
        <mxCell id="Hle__ljJlGau1w-L2hVQ-18" style="line;strokeWidth=1;fillColor=none;align=left;verticalAlign=middle;spacingTop=-1;spacingLeft=3;spacingRight=3;rotatable=0;labelPosition=right;points=[];portConstraint=eastwest;strokeColor=inherit;" vertex="1" parent="Hle__ljJlGau1w-L2hVQ-12">
          <mxGeometry y="150" width="156" height="8" as="geometry" />
        </mxCell>
        <mxCell id="Hle__ljJlGau1w-L2hVQ-19" value="+authenticate()" style="text;strokeColor=none;fillColor=none;align=left;verticalAlign=top;spacingLeft=4;spacingRight=4;overflow=hidden;rotatable=0;points=[[0,0.5],[1,0.5]];portConstraint=eastwest;" vertex="1" parent="Hle__ljJlGau1w-L2hVQ-12">
          <mxGeometry y="158" width="156" height="25" as="geometry" />
        </mxCell>
        <mxCell id="Hle__ljJlGau1w-L2hVQ-20" value="SellerPayout" style="swimlane;fontStyle=1;align=center;verticalAlign=top;childLayout=stackLayout;horizontal=1;startSize=24.875;horizontalStack=0;resizeParent=1;resizeParentMax=0;resizeLast=0;collapsible=0;marginBottom=0;" vertex="1" parent="1">
          <mxGeometry x="389" y="42" width="148" height="207.875" as="geometry" />
        </mxCell>
        <mxCell id="Hle__ljJlGau1w-L2hVQ-21" value="+id" style="text;strokeColor=none;fillColor=none;align=left;verticalAlign=top;spacingLeft=4;spacingRight=4;overflow=hidden;rotatable=0;points=[[0,0.5],[1,0.5]];portConstraint=eastwest;" vertex="1" parent="Hle__ljJlGau1w-L2hVQ-20">
          <mxGeometry y="24.875" width="148" height="25" as="geometry" />
        </mxCell>
        <mxCell id="Hle__ljJlGau1w-L2hVQ-22" value="+seller_id" style="text;strokeColor=none;fillColor=none;align=left;verticalAlign=top;spacingLeft=4;spacingRight=4;overflow=hidden;rotatable=0;points=[[0,0.5],[1,0.5]];portConstraint=eastwest;" vertex="1" parent="Hle__ljJlGau1w-L2hVQ-20">
          <mxGeometry y="49.875" width="148" height="25" as="geometry" />
        </mxCell>
        <mxCell id="Hle__ljJlGau1w-L2hVQ-23" value="+amount" style="text;strokeColor=none;fillColor=none;align=left;verticalAlign=top;spacingLeft=4;spacingRight=4;overflow=hidden;rotatable=0;points=[[0,0.5],[1,0.5]];portConstraint=eastwest;" vertex="1" parent="Hle__ljJlGau1w-L2hVQ-20">
          <mxGeometry y="74.875" width="148" height="25" as="geometry" />
        </mxCell>
        <mxCell id="Hle__ljJlGau1w-L2hVQ-24" value="+currency_id" style="text;strokeColor=none;fillColor=none;align=left;verticalAlign=top;spacingLeft=4;spacingRight=4;overflow=hidden;rotatable=0;points=[[0,0.5],[1,0.5]];portConstraint=eastwest;" vertex="1" parent="Hle__ljJlGau1w-L2hVQ-20">
          <mxGeometry y="99.875" width="148" height="25" as="geometry" />
        </mxCell>
        <mxCell id="Hle__ljJlGau1w-L2hVQ-25" value="+date_scheduled" style="text;strokeColor=none;fillColor=none;align=left;verticalAlign=top;spacingLeft=4;spacingRight=4;overflow=hidden;rotatable=0;points=[[0,0.5],[1,0.5]];portConstraint=eastwest;" vertex="1" parent="Hle__ljJlGau1w-L2hVQ-20">
          <mxGeometry y="124.875" width="148" height="25" as="geometry" />
        </mxCell>
        <mxCell id="Hle__ljJlGau1w-L2hVQ-26" value="+state" style="text;strokeColor=none;fillColor=none;align=left;verticalAlign=top;spacingLeft=4;spacingRight=4;overflow=hidden;rotatable=0;points=[[0,0.5],[1,0.5]];portConstraint=eastwest;" vertex="1" parent="Hle__ljJlGau1w-L2hVQ-20">
          <mxGeometry y="149.875" width="148" height="25" as="geometry" />
        </mxCell>
        <mxCell id="Hle__ljJlGau1w-L2hVQ-27" style="line;strokeWidth=1;fillColor=none;align=left;verticalAlign=middle;spacingTop=-1;spacingLeft=3;spacingRight=3;rotatable=0;labelPosition=right;points=[];portConstraint=eastwest;strokeColor=inherit;" vertex="1" parent="Hle__ljJlGau1w-L2hVQ-20">
          <mxGeometry y="174.875" width="148" height="8" as="geometry" />
        </mxCell>
        <mxCell id="Hle__ljJlGau1w-L2hVQ-28" value="+process_payout()" style="text;strokeColor=none;fillColor=none;align=left;verticalAlign=top;spacingLeft=4;spacingRight=4;overflow=hidden;rotatable=0;points=[[0,0.5],[1,0.5]];portConstraint=eastwest;" vertex="1" parent="Hle__ljJlGau1w-L2hVQ-20">
          <mxGeometry y="182.875" width="148" height="25" as="geometry" />
        </mxCell>
        <mxCell id="Hle__ljJlGau1w-L2hVQ-29" value="SellerProfile" style="swimlane;fontStyle=1;align=center;verticalAlign=top;childLayout=stackLayout;horizontal=1;startSize=28;horizontalStack=0;resizeParent=1;resizeParentMax=0;resizeLast=0;collapsible=0;marginBottom=0;" vertex="1" parent="1">
          <mxGeometry x="400" y="369" width="127" height="120" as="geometry" />
        </mxCell>
        <mxCell id="Hle__ljJlGau1w-L2hVQ-30" value="+id" style="text;strokeColor=none;fillColor=none;align=left;verticalAlign=top;spacingLeft=4;spacingRight=4;overflow=hidden;rotatable=0;points=[[0,0.5],[1,0.5]];portConstraint=eastwest;" vertex="1" parent="Hle__ljJlGau1w-L2hVQ-29">
          <mxGeometry y="28" width="127" height="28" as="geometry" />
        </mxCell>
        <mxCell id="Hle__ljJlGau1w-L2hVQ-31" value="+store_name" style="text;strokeColor=none;fillColor=none;align=left;verticalAlign=top;spacingLeft=4;spacingRight=4;overflow=hidden;rotatable=0;points=[[0,0.5],[1,0.5]];portConstraint=eastwest;" vertex="1" parent="Hle__ljJlGau1w-L2hVQ-29">
          <mxGeometry y="56" width="127" height="28" as="geometry" />
        </mxCell>
        <mxCell id="Hle__ljJlGau1w-L2hVQ-32" style="line;strokeWidth=1;fillColor=none;align=left;verticalAlign=middle;spacingTop=-1;spacingLeft=3;spacingRight=3;rotatable=0;labelPosition=right;points=[];portConstraint=eastwest;strokeColor=inherit;" vertex="1" parent="Hle__ljJlGau1w-L2hVQ-29">
          <mxGeometry y="84" width="127" height="8" as="geometry" />
        </mxCell>
        <mxCell id="Hle__ljJlGau1w-L2hVQ-33" value="+...(other fields)" style="text;strokeColor=none;fillColor=none;align=left;verticalAlign=top;spacingLeft=4;spacingRight=4;overflow=hidden;rotatable=0;points=[[0,0.5],[1,0.5]];portConstraint=eastwest;" vertex="1" parent="Hle__ljJlGau1w-L2hVQ-29">
          <mxGeometry y="92" width="127" height="28" as="geometry" />
        </mxCell>
        <mxCell id="Hle__ljJlGau1w-L2hVQ-34" value="ResPartner" style="swimlane;fontStyle=1;align=center;verticalAlign=top;childLayout=stackLayout;horizontal=1;startSize=24;horizontalStack=0;resizeParent=1;resizeParentMax=0;resizeLast=0;collapsible=0;marginBottom=0;" vertex="1" parent="1">
          <mxGeometry x="226" y="401" width="100" height="36" as="geometry" />
        </mxCell>
        <mxCell id="Hle__ljJlGau1w-L2hVQ-35" style="line;strokeWidth=1;fillColor=none;align=left;verticalAlign=middle;spacingTop=-1;spacingLeft=3;spacingRight=3;rotatable=0;labelPosition=right;points=[];portConstraint=eastwest;strokeColor=inherit;" vertex="1" parent="Hle__ljJlGau1w-L2hVQ-34">
          <mxGeometry y="24" width="100" height="12" as="geometry" />
        </mxCell>
        <mxCell id="Hle__ljJlGau1w-L2hVQ-36" value="uses &gt;" style="curved=1;startArrow=none;endArrow=open;endSize=12;exitX=0.09;exitY=1;entryX=0.5;entryY=0;rounded=0;" edge="1" parent="1" source="Hle__ljJlGau1w-L2hVQ-1" target="Hle__ljJlGau1w-L2hVQ-12">
          <mxGeometry relative="1" as="geometry">
            <Array as="points">
              <mxPoint x="98" y="304" />
            </Array>
          </mxGeometry>
        </mxCell>
        <mxCell id="Hle__ljJlGau1w-L2hVQ-37" value="initiated by &gt;" style="curved=1;startArrow=none;endArrow=open;endSize=12;exitX=0.91;exitY=1;entryX=0.5;entryY=-0.01;rounded=0;" edge="1" parent="1" source="Hle__ljJlGau1w-L2hVQ-1" target="Hle__ljJlGau1w-L2hVQ-34">
          <mxGeometry relative="1" as="geometry">
            <Array as="points">
              <mxPoint x="276" y="304" />
            </Array>
          </mxGeometry>
        </mxCell>
        <mxCell id="Hle__ljJlGau1w-L2hVQ-38" value="belongs to &gt;" style="curved=1;startArrow=none;endArrow=open;endSize=12;exitX=0.5;exitY=1;entryX=0.5;entryY=0;rounded=0;" edge="1" parent="1" source="Hle__ljJlGau1w-L2hVQ-20" target="Hle__ljJlGau1w-L2hVQ-29">
          <mxGeometry relative="1" as="geometry">
            <Array as="points" />
          </mxGeometry>
        </mxCell>
        <mxCell id="Hle__ljJlGau1w-L2hVQ-39" value="&lt;h3 style=&quot;font-size: 14px;&quot;&gt;&lt;strong style=&quot;font-size: 14px;&quot;&gt;Explanation&lt;/strong&gt;&lt;/h3&gt;&lt;ul style=&quot;font-size: 14px;&quot;&gt;&lt;li style=&quot;font-size: 14px;&quot;&gt;&lt;strong style=&quot;font-size: 14px;&quot;&gt;&lt;code style=&quot;font-size: 14px;&quot;&gt;PaymentTransaction&lt;/code&gt;&lt;/strong&gt;: Handles payment transactions.&lt;/li&gt;&lt;li style=&quot;font-size: 14px;&quot;&gt;&lt;strong style=&quot;font-size: 14px;&quot;&gt;&lt;code style=&quot;font-size: 14px;&quot;&gt;PaymentAcquirer&lt;/code&gt;&lt;/strong&gt;: Payment gateways like Stripe or PayPal.&lt;/li&gt;&lt;li style=&quot;font-size: 14px;&quot;&gt;&lt;strong style=&quot;font-size: 14px;&quot;&gt;&lt;code style=&quot;font-size: 14px;&quot;&gt;SellerPayout&lt;/code&gt;&lt;/strong&gt;: Records of payouts to sellers.&lt;/li&gt;&lt;li style=&quot;font-size: 14px;&quot;&gt;&lt;strong style=&quot;font-size: 14px;&quot;&gt;Associations&lt;/strong&gt;:&lt;ul style=&quot;font-size: 14px;&quot;&gt;&lt;li style=&quot;font-size: 14px;&quot;&gt;Transactions use acquirers and are initiated by customers.&lt;/li&gt;&lt;li style=&quot;font-size: 14px;&quot;&gt;Payouts are linked to sellers.&lt;/li&gt;&lt;/ul&gt;&lt;/li&gt;&lt;/ul&gt;" style="rounded=0;whiteSpace=wrap;html=1;align=left;spacing=14;fillColor=#d5e8d4;gradientColor=#97d077;strokeColor=#82b366;fontSize=14;" vertex="1" parent="1">
          <mxGeometry x="600" y="120" width="440" height="200" as="geometry" />
        </mxCell>
      </root>
    </mxGraphModel>
  </diagram>
</mxfile>
